<svg width="22" height="22" viewBox="0 0 22 22" fill="none" xmlns="http://www.w3.org/2000/svg">
<path d="M21 21.75C21.4142 21.75 21.75 21.4142 21.75 21C21.75 20.5858 21.4142 20.25 21 20.25V21.75ZM1 20.25C0.585786 20.25 0.25 20.5858 0.25 21C0.25 21.4142 0.585786 21.75 1 21.75V20.25ZM19.663 4.889L19.0394 5.30563L19.0395 5.30588L19.663 4.889ZM19.111 4.337L18.6941 4.96047L18.6944 4.96063L19.111 4.337ZM2.337 4.889L2.96047 5.30588L2.96063 5.30563L2.337 4.889ZM2.889 4.337L3.30563 4.96063L3.30588 4.96047L2.889 4.337ZM10.25 21C10.25 21.4142 10.5858 21.75 11 21.75C11.4142 21.75 11.75 21.4142 11.75 21H10.25ZM11.75 18C11.75 17.5858 11.4142 17.25 11 17.25C10.5858 17.25 10.25 17.5858 10.25 18H11.75ZM9 10.25C8.58579 10.25 8.25 10.5858 8.25 11C8.25 11.4142 8.58579 11.75 9 11.75V10.25ZM13 11.75C13.4142 11.75 13.75 11.4142 13.75 11C13.75 10.5858 13.4142 10.25 13 10.25V11.75ZM4.5 9.25C4.08579 9.25 3.75 9.58579 3.75 10C3.75 10.4142 4.08579 10.75 4.5 10.75V9.25ZM6 10.75C6.41421 10.75 6.75 10.4142 6.75 10C6.75 9.58579 6.41421 9.25 6 9.25V10.75ZM4.5 12.25C4.08579 12.25 3.75 12.5858 3.75 13C3.75 13.4142 4.08579 13.75 4.5 13.75V12.25ZM6 13.75C6.41421 13.75 6.75 13.4142 6.75 13C6.75 12.5858 6.41421 12.25 6 12.25V13.75ZM16 9.25C15.5858 9.25 15.25 9.58579 15.25 10C15.25 10.4142 15.5858 10.75 16 10.75V9.25ZM17.5 10.75C17.9142 10.75 18.25 10.4142 18.25 10C18.25 9.58579 17.9142 9.25 17.5 9.25V10.75ZM16 12.25C15.5858 12.25 15.25 12.5858 15.25 13C15.25 13.4142 15.5858 13.75 16 13.75V12.25ZM17.5 13.75C17.9142 13.75 18.25 13.4142 18.25 13C18.25 12.5858 17.9142 12.25 17.5 12.25V13.75ZM4.5 6.25C4.08579 6.25 3.75 6.58579 3.75 7C3.75 7.41421 4.08579 7.75 4.5 7.75V6.25ZM6 7.75C6.41421 7.75 6.75 7.41421 6.75 7C6.75 6.58579 6.41421 6.25 6 6.25V7.75ZM16 6.25C15.5858 6.25 15.25 6.58579 15.25 7C15.25 7.41421 15.5858 7.75 16 7.75V6.25ZM17.5 7.75C17.9142 7.75 18.25 7.41421 18.25 7C18.25 6.58579 17.9142 6.25 17.5 6.25V7.75ZM9 13.25C8.58579 13.25 8.25 13.5858 8.25 14C8.25 14.4142 8.58579 14.75 9 14.75V13.25ZM13 14.75C13.4142 14.75 13.75 14.4142 13.75 14C13.75 13.5858 13.4142 13.25 13 13.25V14.75ZM10.25 8C10.25 8.41421 10.5858 8.75 11 8.75C11.4142 8.75 11.75 8.41421 11.75 8H10.25ZM11.75 4C11.75 3.58579 11.4142 3.25 11 3.25C10.5858 3.25 10.25 3.58579 10.25 4H11.75ZM13 6.75C13.4142 6.75 13.75 6.41421 13.75 6C13.75 5.58579 13.4142 5.25 13 5.25V6.75ZM9 5.25C8.58579 5.25 8.25 5.58579 8.25 6C8.25 6.41421 8.58579 6.75 9 6.75V5.25ZM21 20.25H1V21.75H21V20.25ZM16.75 21V5H15.25V21H16.75ZM16.75 5C16.75 4.07822 16.7516 3.31163 16.6701 2.70551C16.5856 2.07766 16.3998 1.51114 15.9443 1.05567L14.8837 2.11633C15.0142 2.24686 15.1214 2.44434 15.1834 2.90549C15.2484 3.38837 15.25 4.03578 15.25 5H16.75ZM15.9443 1.05567C15.4889 0.600203 14.9223 0.414408 14.2945 0.329946C13.6884 0.248405 12.9218 0.25 12 0.25V1.75C12.9642 1.75 13.6116 1.75159 14.0945 1.81655C14.5557 1.87859 14.7531 1.9858 14.8837 2.11633L15.9443 1.05567ZM12 0.25H10V1.75H12V0.25ZM10 0.25C9.07822 0.25 8.31163 0.248405 7.70551 0.329946C7.07766 0.414408 6.51114 0.600203 6.05567 1.05567L7.11633 2.11633C7.24686 1.9858 7.44434 1.87859 7.90549 1.81655C8.38837 1.75159 9.03578 1.75 10 1.75V0.25ZM6.05567 1.05567C5.6002 1.51114 5.41441 2.07766 5.32995 2.70551C5.24841 3.31163 5.25 4.07822 5.25 5H6.75C6.75 4.03578 6.75159 3.38837 6.81655 2.90549C6.87859 2.44434 6.9858 2.24686 7.11633 2.11633L6.05567 1.05567ZM5.25 5V21H6.75V5H5.25ZM20.75 21V7.5H19.25V21H20.75ZM20.75 7.5C20.75 6.8136 20.7509 6.24212 20.704 5.78112C20.6559 5.30773 20.5512 4.86807 20.2865 4.47212L19.0395 5.30588C19.1118 5.41393 19.1756 5.57777 19.2117 5.93288C19.2491 6.30038 19.25 6.7824 19.25 7.5H20.75ZM20.2866 4.47237C20.0859 4.17197 19.828 3.91406 19.5276 3.71337L18.6944 4.96063C18.8309 5.05185 18.9481 5.16909 19.0394 5.30563L20.2866 4.47237ZM19.5279 3.71353C19.1319 3.44878 18.6923 3.34411 18.2189 3.29597C17.7579 3.24909 17.1864 3.25 16.5 3.25V4.75C17.2176 4.75 17.6996 4.75091 18.0671 4.78828C18.4222 4.82439 18.5861 4.88822 18.6941 4.96047L19.5279 3.71353ZM2.75 21V7.5H1.25V21H2.75ZM2.75 7.5C2.75 6.7824 2.75091 6.30038 2.78828 5.93288C2.82439 5.57777 2.88822 5.41393 2.96047 5.30588L1.71353 4.47212C1.44878 4.86807 1.34411 5.30773 1.29597 5.78112C1.24909 6.24212 1.25 6.8136 1.25 7.5H2.75ZM2.96063 5.30563C3.05185 5.16909 3.16909 5.05185 3.30563 4.96063L2.47237 3.71337C2.17197 3.91406 1.91406 4.17197 1.71337 4.47237L2.96063 5.30563ZM3.30588 4.96047C3.41393 4.88822 3.57777 4.82439 3.93288 4.78828C4.30038 4.75091 4.7824 4.75 5.5 4.75V3.25C4.8136 3.25 4.24212 3.24909 3.78112 3.29597C3.30773 3.34411 2.86807 3.44878 2.47212 3.71353L3.30588 4.96047ZM11.75 21V18H10.25V21H11.75ZM9 11.75H13V10.25H9V11.75ZM4.5 10.75H6V9.25H4.5V10.75ZM4.5 13.75H6V12.25H4.5V13.75ZM16 10.75H17.5V9.25H16V10.75ZM16 13.75H17.5V12.25H16V13.75ZM4.5 7.75H6V6.25H4.5V7.75ZM16 7.75H17.5V6.25H16V7.75ZM9 14.75H13V13.25H9V14.75ZM11.75 8V4H10.25V8H11.75ZM13 5.25H9V6.75H13V5.25Z" fill="black"/>
</svg>
