<svg width="20" height="20" viewBox="0 0 20 20" fill="none" xmlns="http://www.w3.org/2000/svg">
<path d="M11 0.05V2.07C14.95 2.56 18 5.92 18 10C18 13.21 16.08 16 13.28 17.28L11 15V20H16L14.78 18.78C17.91 17.07 20 13.76 20 10C20 4.82 16.05 0.55 11 0.05ZM9 0C7.05 0.2 5.2 0.96 3.68 2.21L5.1 3.63C6.2351 2.75498 7.57983 2.19295 9 2V0ZM2.2 3.68C0.96 5.2 0.2 7.05 0 9H2C2.19 7.58 2.75 6.23 3.63 5.1L2.2 3.68ZM4 6V8H7V9H6C4.9 9 4 9.9 4 11V14H9V12H6V11H7C8.11 11 9 10.11 9 9V8C9 7.46957 8.78929 6.96086 8.41421 6.58579C8.03914 6.21071 7.53043 6 7 6H4ZM10 6V11H13V14H15V11H16V9H15V6H13V9H12V6H10ZM0 11C0.2 12.95 0.97 14.8 2.22 16.32L3.64 14.9C2.76201 13.7656 2.19657 12.4209 2 11H0ZM5.11 16.37L3.68 17.79C5.19938 19.0305 7.04886 19.7988 9 20V18C7.58168 17.8114 6.23907 17.2489 5.11 16.37Z" fill="black"/>
</svg>
