<svg width="36" height="36" viewBox="0 0 36 36" fill="none" xmlns="http://www.w3.org/2000/svg">
<path fill-rule="evenodd" clip-rule="evenodd" d="M26 3C25.7348 3 25.4804 2.89464 25.2929 2.70711C25.1054 2.51957 25 2.26522 25 2V0H23V2C23 3.306 23.835 4.418 25 4.83V6H24C23.7348 6 23.4804 6.10536 23.2929 6.29289C23.1054 6.48043 23 6.73478 23 7V13C23 13.2652 23.1054 13.5196 23.2929 13.7071C23.4804 13.8946 23.7348 14 24 14H28C28.2652 14 28.5196 13.8946 28.7071 13.7071C28.8946 13.5196 29 13.2652 29 13V7C29 6.73478 28.8946 6.48043 28.7071 6.29289C28.5196 6.10536 28.2652 6 28 6H27V5H32V17.066H14.11C14.0695 17.0661 14.0294 17.0582 13.992 17.0428C13.9546 17.0273 13.9206 17.0046 13.892 16.976L13.526 16.606L13.895 16.239C14.2454 15.889 14.5233 15.4733 14.713 15.0158C14.9026 14.5583 15.0003 14.068 15.0004 13.5727C15.0005 13.0775 14.903 12.587 14.7135 12.1295C14.524 11.6719 14.2462 11.2562 13.896 10.906L12.096 9.106C11.746 8.75563 11.3305 8.47763 10.8731 8.28786C10.4156 8.09809 9.92534 8.00028 9.43012 8C8.93491 7.99972 8.44449 8.09698 7.98686 8.28624C7.52923 8.47549 7.11337 8.75303 6.763 9.103L6.059 9.807C5.37827 9.61317 4.65799 9.60566 3.97337 9.78526C3.28876 9.96485 2.66492 10.325 2.167 10.828C1.41929 11.5833 0.999865 12.6032 0.999865 13.666C0.999865 14.7288 1.41929 15.7487 2.167 16.504L3 17.343V28H0V30H3.05C2.55338 30.4866 2.21293 31.1101 2.07208 31.7909C1.93122 32.4718 1.99634 33.1792 2.25913 33.8229C2.52192 34.4666 2.97048 35.0174 3.54759 35.4052C4.1247 35.7929 4.80422 36 5.4995 36C6.19478 36 6.8743 35.7929 7.45141 35.4052C8.02852 35.0174 8.47708 34.4666 8.73987 33.8229C9.00266 33.1792 9.06778 32.4718 8.92692 31.7909C8.78607 31.1101 8.44562 30.4866 7.949 30H28.051C27.5544 30.4866 27.2139 31.1101 27.0731 31.7909C26.9322 32.4718 26.9973 33.1792 27.2601 33.8229C27.5229 34.4666 27.9715 35.0174 28.5486 35.4052C29.1257 35.7929 29.8052 36 30.5005 36C31.1958 36 31.8753 35.7929 32.4524 35.4052C33.0295 35.0174 33.4781 34.4666 33.7409 33.8229C34.0037 33.1792 34.0688 32.4718 33.9279 31.7909C33.7871 31.1101 33.4466 30.4866 32.95 30H36V28H32V25H32.066C34.24 25 36 23.224 36 21.033C36.0014 20.3318 35.817 19.6428 35.4657 19.0359C35.1144 18.4291 34.6087 17.926 34 17.578V5C34 4.46957 33.7893 3.96086 33.4142 3.58579C33.0391 3.21071 32.5304 3 32 3H26ZM7.826 10.868L12.116 15.188L12.481 14.824C12.6455 14.6596 12.776 14.4644 12.865 14.2496C12.954 14.0348 12.9998 13.8045 12.9998 13.572C12.9998 13.3395 12.954 13.1092 12.865 12.8944C12.776 12.6796 12.6455 12.4844 12.481 12.32L10.681 10.52C10.3492 10.1878 9.89897 10.0009 9.42941 10.0006C8.95986 10.0002 8.50937 10.1863 8.177 10.518L7.826 10.868ZM10.276 24.668C10.486 24.88 10.773 25 11.072 25H30V28H5V19.356L10.275 24.667L10.276 24.668ZM12.474 18.385C12.905 18.819 13.494 19.066 14.11 19.066H32.066C33.118 19.066 34 19.931 34 21.033C34 22.135 33.119 23 32.066 23H11.438L3.586 15.095C3.21048 14.7144 2.99994 14.2012 2.99994 13.6665C2.99994 13.1318 3.21048 12.6186 3.586 12.238C3.76771 12.0536 3.98426 11.9072 4.22305 11.8073C4.46185 11.7073 4.71813 11.6559 4.977 11.6559C5.23587 11.6559 5.49215 11.7073 5.73095 11.8073C5.96974 11.9072 6.18629 12.0536 6.368 12.238L12.474 18.385ZM7 32.5C7 32.8978 6.84196 33.2794 6.56066 33.5607C6.27936 33.842 5.89782 34 5.5 34C5.10218 34 4.72064 33.842 4.43934 33.5607C4.15804 33.2794 4 32.8978 4 32.5C4 32.1022 4.15804 31.7206 4.43934 31.4393C4.72064 31.158 5.10218 31 5.5 31C5.89782 31 6.27936 31.158 6.56066 31.4393C6.84196 31.7206 7 32.1022 7 32.5ZM30.5 34C30.8978 34 31.2794 33.842 31.5607 33.5607C31.842 33.2794 32 32.8978 32 32.5C32 32.1022 31.842 31.7206 31.5607 31.4393C31.2794 31.158 30.8978 31 30.5 31C30.1022 31 29.7206 31.158 29.4393 31.4393C29.158 31.7206 29 32.1022 29 32.5C29 32.8978 29.158 33.2794 29.4393 33.5607C29.7206 33.842 30.1022 34 30.5 34ZM25 12V8H27V12H25Z" fill="black"/>
</svg>
